# xmcd
#
# Track frame offsets: 
#        150
#        12256
#        25191
#        36638
#        48223
#        60501
#        73298
#        85998
#        96687
#        108102
#        119702
#        131142
#        143213
#        154998
#        167243
#        181583
#        193265
#        203627
#        217399
#        228034
#
# Disc length: 3206 seconds
#
# Revision: 0
# Processed by: cddbd v1.5.2PL0 Copyright (c) Steve Scherf et al.
# Submitted via: ExactAudioCopy v1.1
#
DISCID=2e0c8414
DTITLE=Various Artist - Country Classics - Disc 2
DYEAR=2012
DGENRE=Country
TTITLE0=Your Cheatin' Heart
TTITLE1=Four Walls
TTITLE2=Crazy Arms
TTITLE3=You Don't Know Me
TTITLE4=Lost Highway
TTITLE5=Sixteen Tons
TTITLE6=Folsom Prison Blues
TTITLE7=In The Jailhouse Now
TTITLE8=Send Me The Pillow That You Dream On
TTITLE9=Walkin' After Midnight
TTITLE10=The Story Of My Life
TTITLE11=I Can't Stop Loving You
TTITLE12=When It's Springtime In Alaska (It's Forty Below)
TTITLE13=Under Your Spell Again
TTITLE14=The Long Black Veil
TTITLE15=White Lightning
TTITLE16=I'm A Honky Tonk Girl
TTITLE17=Big Bad John
TTITLE18=Walk On By
TTITLE19=Crazy
EXTD=
EXTT0=
EXTT1=
EXTT2=
EXTT3=
EXTT4=
EXTT5=
EXTT6=
EXTT7=
EXTT8=
EXTT9=
EXTT10=
EXTT11=
EXTT12=
EXTT13=
EXTT14=
EXTT15=
EXTT16=
EXTT17=
EXTT18=
EXTT19=
PLAYORDER=
